<?xml version="1.0" encoding="UTF-8"?>
<svg xmlns="http://www.w3.org/2000/svg" xmlns:xlink="http://www.w3.org/1999/xlink" width="50px" height="52px" viewBox="0 0 50 52" version="1.1">
<g id="surface1">
<path style=" stroke:none;fill-rule:nonzero;fill:rgb(3.137255%,3.137255%,3.137255%);fill-opacity:1;" d="M 16.582031 7.800781 C 16.582031 14.492188 16.582031 21.1875 16.582031 28.078125 C 20.746094 28.078125 24.917969 28.078125 29.210938 28.078125 C 29.210938 28.851562 29.210938 29.625 29.210938 30.421875 C 24.261719 30.421875 19.3125 30.421875 14.210938 30.421875 C 14.210938 24.328125 14.210938 18.234375 14.210938 11.960938 C 10.390625 14.894531 7.464844 18.777344 6.84375 23.660156 C 6.457031 29.5 7.394531 34.941406 11.316406 39.519531 C 11.460938 39.707031 11.601562 39.890625 11.753906 40.082031 C 15.226562 44.324219 20.292969 45.609375 25.527344 46.28125 C 25.527344 47.226562 25.527344 48.167969 25.527344 49.136719 C 20.292969 49.46875 15.191406 47.226562 11.296875 43.855469 C 10.859375 43.457031 10.429688 43.050781 10 42.636719 C 9.820312 42.46875 9.636719 42.292969 9.449219 42.117188 C 7.113281 39.71875 5.390625 36.46875 4.472656 33.28125 C 4.394531 33.035156 4.316406 32.789062 4.238281 32.535156 C 3.152344 28.511719 2.9375 23.328125 4.734375 19.5 C 4.808594 19.339844 4.882812 19.175781 4.960938 19.003906 C 7.128906 14.246094 10.050781 10.570312 14.738281 8.058594 C 15.527344 7.800781 15.527344 7.800781 16.582031 7.800781 Z M 16.582031 7.800781 "/>
<path style=" stroke:none;fill-rule:nonzero;fill:rgb(3.137255%,3.137255%,3.137255%);fill-opacity:1;" d="M 21.050781 5.71875 C 28.417969 5.519531 34.851562 6.398438 40.527344 11.441406 C 40.714844 11.597656 40.898438 11.761719 41.09375 11.921875 C 44.746094 15.253906 47.246094 20.5 47.5 25.371094 C 47.640625 32.460938 45.84375 37.859375 40.90625 43.09375 C 38.707031 45.101562 38.707031 45.101562 37.367188 45.761719 C 36.933594 44.902344 36.5 44.042969 36.054688 43.160156 C 36.398438 42.90625 36.75 42.65625 37.101562 42.394531 C 39.277344 40.71875 40.785156 38.777344 42.105469 36.402344 C 42.203125 36.242188 42.300781 36.082031 42.402344 35.917969 C 44.585938 32.105469 44.785156 27.070312 43.898438 22.863281 C 43.132812 20.144531 42.027344 17.820312 40.265625 15.597656 C 40.117188 15.417969 39.976562 15.226562 39.828125 15.039062 C 37.152344 11.800781 33.058594 9.792969 28.949219 9.097656 C 28.703125 9.054688 28.457031 9.011719 28.203125 8.96875 C 27.40625 8.847656 26.640625 8.789062 25.832031 8.757812 C 25.550781 8.746094 25.273438 8.738281 24.984375 8.726562 C 24.699219 8.714844 24.40625 8.703125 24.113281 8.691406 C 23.820312 8.683594 23.523438 8.671875 23.222656 8.660156 C 22.496094 8.632812 21.773438 8.605469 21.050781 8.578125 C 21.050781 7.636719 21.050781 6.695312 21.050781 5.71875 Z M 21.050781 5.71875 "/>
<path style=" stroke:none;fill-rule:nonzero;fill:rgb(3.529412%,3.529412%,3.529412%);fill-opacity:1;" d="M 18.683594 20.539062 C 19.949219 20.527344 21.210938 20.519531 22.476562 20.507812 C 22.902344 20.507812 23.332031 20.507812 23.761719 20.5 C 27.90625 20.457031 31.703125 20.652344 34.882812 23.660156 C 36.308594 25.1875 36.949219 26.730469 36.914062 28.804688 C 36.585938 31.394531 34.605469 33.605469 32.652344 35.21875 C 31.292969 36.214844 30.085938 36.660156 28.421875 36.921875 C 28.507812 37.109375 28.59375 37.296875 28.675781 37.488281 C 28.796875 37.753906 28.914062 38.019531 29.039062 38.289062 C 29.167969 38.585938 29.304688 38.875 29.4375 39.179688 C 29.726562 39.820312 30.015625 40.460938 30.300781 41.101562 C 30.949219 42.542969 31.597656 43.988281 32.257812 45.429688 C 32.355469 45.644531 32.453125 45.859375 32.554688 46.082031 C 32.734375 46.476562 32.917969 46.871094 33.097656 47.265625 C 33.683594 48.5625 33.683594 48.5625 33.683594 49.136719 C 32.640625 49.136719 31.597656 49.136719 30.527344 49.136719 C 29.554688 46.976562 28.59375 44.808594 27.628906 42.636719 C 27.558594 42.472656 27.484375 42.308594 27.410156 42.136719 C 26.964844 41.132812 26.523438 40.128906 26.082031 39.128906 C 25.941406 38.804688 25.800781 38.480469 25.660156 38.160156 C 25.457031 37.707031 25.261719 37.253906 25.0625 36.800781 C 24.949219 36.542969 24.835938 36.28125 24.714844 36.015625 C 24.472656 35.363281 24.472656 35.363281 24.472656 34.578125 C 24.726562 34.558594 24.980469 34.539062 25.242188 34.511719 C 28.453125 34.171875 30.585938 33.503906 32.738281 30.988281 C 33.550781 29.886719 33.855469 29.023438 33.8125 27.65625 C 33.554688 26.421875 32.804688 25.734375 31.84375 24.960938 C 29.300781 23.460938 26.742188 23.460938 23.882812 23.449219 C 23.453125 23.441406 23.023438 23.4375 22.59375 23.429688 C 21.550781 23.414062 20.515625 23.40625 19.472656 23.402344 C 19.34375 23.066406 19.207031 22.742188 19.078125 22.410156 C 19.007812 22.226562 18.933594 22.039062 18.855469 21.847656 C 18.683594 21.320312 18.683594 21.320312 18.683594 20.539062 Z M 18.683594 20.539062 "/>
</g>
</svg>
